<?xml version="1.0" encoding="UTF-8" standalone="no"?>
<!-- Created with Inkscape (http://www.inkscape.org/) -->

<svg
   xmlns:dc="http://purl.org/dc/elements/1.1/"
   xmlns:cc="http://creativecommons.org/ns#"
   xmlns:rdf="http://www.w3.org/1999/02/22-rdf-syntax-ns#"
   xmlns:svg="http://www.w3.org/2000/svg"
   xmlns="http://www.w3.org/2000/svg"
   xmlns:sodipodi="http://sodipodi.sourceforge.net/DTD/sodipodi-0.dtd"
   xmlns:inkscape="http://www.inkscape.org/namespaces/inkscape"
   width="800"
   height="745.10944"
   id="svg3018"
   version="1.1"
   inkscape:version="0.48.3.1 r9886"
   sodipodi:docname="New document 3">
  <defs
     id="defs3020" />
  <sodipodi:namedview
     id="base"
     pagecolor="#ffffff"
     bordercolor="#666666"
     borderopacity="1.0"
     inkscape:pageopacity="0.0"
     inkscape:pageshadow="2"
     inkscape:zoom="0.35"
     inkscape:cx="104.02208"
     inkscape:cy="130.43435"
     inkscape:document-units="px"
     inkscape:current-layer="layer1"
     showgrid="false"
     fit-margin-top="0"
     fit-margin-left="0"
     fit-margin-right="0"
     fit-margin-bottom="0"
     inkscape:window-width="1280"
     inkscape:window-height="726"
     inkscape:window-x="0"
     inkscape:window-y="25"
     inkscape:window-maximized="1" />
  <metadata
     id="metadata3023">
    <rdf:RDF>
      <cc:Work
         rdf:about="">
        <dc:format>image/svg+xml</dc:format>
        <dc:type
           rdf:resource="http://purl.org/dc/dcmitype/StillImage" />
        <dc:title></dc:title>
      </cc:Work>
    </rdf:RDF>
  </metadata>
  <g
     inkscape:label="Layer 1"
     inkscape:groupmode="layer"
     id="layer1"
     transform="translate(361.87922,882.31292)">
    <path
       inkscape:connector-curvature="0"
       style="font-size:40px;font-style:normal;font-variant:normal;font-weight:bold;font-stretch:normal;text-align:start;line-height:125%;letter-spacing:0;word-spacing:0;writing-mode:lr-tb;text-anchor:start;color:#000000;fill:#ffffff;fill-opacity:1;stroke:none;stroke-width:1;marker:none;visibility:visible;display:inline;overflow:visible;enable-background:accumulate;font-family:PropCourierSans;-inkscape-font-specification:PropCourierSans Bold"
       d="m 413.64565,-882.20207 c -14.22175,0.55875 -32.5173,3.65087 -48.95027,13.13299 -32.86581,18.96424 -311.908664,257.58582 -311.908664,257.58582 l -39.995944,-4.77564 c 0,0 -10.264464,-10.46036 -18.2071093,-21.78882 -13.7597497,-19.62558 -27.6047897,-30.90056 -42.3837627,-34.92184 -2.8884,-0.78607 -10.07076,-3.21486 -16.117773,-4.77563 -9.198827,-2.37244 -11.665147,-4.10141 -15.520814,-12.83452 -6.69124,-15.15759 -13.138346,-13.60111 -16.71472,3.8802 -1.845013,9.01631 -7.345023,10.49417 -29.847723,11.04365 -18.1113,0.44319 -50.44149,-10.76638 -62.97869,-22.0873 -7.61427,-6.87424 -13.90444,-9.00647 -17.90863,-7.46194 -0.59981,0.23114 -0.96858,0.47756 -1.49238,0.89495 -1.57156,1.25275 -2.93626,3.27715 -3.28326,6.26803 -0.66189,5.713 1.98018,9.05002 14.32691,19.10254 8.26291,6.72763 18.40921,14.06214 22.3858,16.11776 13.6714,7.0666 47.98968,16.98532 58.8,17.0132 19.012667,0.0669 21.680053,1.66928 23.579707,14.32691 2.121613,14.13817 -1.879214,26.04212 -13.431477,29.25077 -57.02691,8.12975 -158.21259,15.73066 -172.8183,19.99796 -14.6057,4.26714 -28.47893,18.71572 -31.63858,30.44468 -1.47739,5.48167 -2.33996,18.1774 -2.08934,28.05686 0.35244,13.89892 -0.67528,20.68261 -5.07412,29.25077 -9.36473,18.23929 -14.10254,39.63376 -12.23756,56.41219 1.46526,13.1754 0.52914,17.19524 -6.5665,32.83249 -10.45979,23.05371 -13.27091,36.12071 -11.6406,56.41219 1.19886,14.92529 0.6342,17.96489 -7.16346,32.83249 -19.79214,39.70597 7.43547,87.50091 44.4731,99.09443 37.03782,11.59324 83.51736,-0.54824 102.37768,-45.66702 18.86032,-45.11972 61.3822,-222.04773 72.82844,-264.74926 11.50985,-42.93994 55.61685,-43.66984 88.647717,-45.9655 11.323133,-0.78797 12.29784,-0.16141 13.133,7.16346 0.480426,4.20361 -0.2894,10.06972 -2.089334,13.43148 -2.526893,4.71794 -2.6628,7.35916 -0.29896,12.53604 0,0 -62.979266,29.28218 -62.978693,44.17462 0,0 0,307.98396 0,328.32491 0,20.34096 66.881627,30.44477 135.508652,30.44468 68.627028,0 135.807128,-8.65497 135.807128,-30.44468 0,-21.78969 0.53964,-294.23489 0.59695,-328.32491 -9.5e-4,-18.8863 -55.51676,-43.87614 -55.51676,-43.87614 6.80977,-11.78982 -3.40283,-22.13527 -1.19391,-25.66904 4.0974,-6.55762 3.87524,-15.5787 -0.89495,-22.3858 -2.88353,-4.11555 -3.90179,-6.84988 -2.08934,-10.14822 5.35788,-9.7485 249.01384,-240.1048 268.92795,-252.21324 19.91488,-12.10794 56.11372,-11.93908 56.11372,-11.93908 l 0,-18.50558 -0.29896,-0.29896 c 0,0 -9.95481,-1.75247 -24.17665,-1.19391 z m -472.787883,236.09545 c 1.13632,-0.22254 2.426213,-0.0955 3.8802,0.29896 20.835053,7.65524 43.240514,34.67579 24.475133,38.50356 -18.76528,3.82786 -35.037973,8.92576 -36.115747,-7.46193 -0.942706,-14.33913 -0.19388,-29.78487 7.760414,-31.34011 z m -114.615237,88.94622 c 4.08861,0.14994 7.21512,0.40305 9.25278,0.89494 1.60424,0.38779 1.87444,0.76888 2.08935,0.89496 -0.41931,3.7696 -3.18603,18.23012 -7.76041,37.60812 -4.64622,19.68183 -10.72426,44.6798 -17.31168,70.44063 -13.17474,51.52175 -28.16908,106.49837 -35.51879,129.53909 -5.75807,18.05124 -8.57188,29.33692 -11.6406,37.30966 -3.06873,7.97273 -6.18349,12.87969 -14.32691,20.29645 -6.9666,6.34548 -17.28857,9.24668 -28.05686,9.25279 -10.76839,0.009 -21.62072,-2.92832 -27.75838,-6.26802 -8.47704,-4.61269 -15.60878,-11.25904 -19.40101,-18.80406 -3.79233,-7.54503 -4.72779,-15.95635 -0.59696,-25.96752 6.99764,-12.39803 8.89176,-19.21678 8.65584,-37.9066 -0.25501,-20.25672 0.84529,-24.53091 15.22233,-61.18783 3.13072,-7.98219 4.41031,-20.12291 4.47716,-32.23553 0.0975,-16.09906 0.80995,-20.98472 8.05888,-38.50356 7.87436,-19.02882 9.41708,-25.91174 9.2528,-45.66702 -0.0955,-11.04556 0.77366,-16.90776 2.08934,-19.99797 1.31578,-3.09003 3.05086,-4.52091 7.76041,-7.16345 1.05732,-0.59314 5.81739,-2.22258 11.93909,-3.58172 6.1216,-1.35915 13.66548,-2.67819 21.78883,-3.88022 16.24681,-2.40385 34.51237,-4.13282 46.56244,-4.77562 6.06133,-0.32379 11.13373,-0.44891 15.22235,-0.29896 z"
       id="path3829" />
  </g>
</svg>
